<mxfile host="app.diagrams.net" agent="Mozilla/5.0 (Windows NT 10.0; Win64; x64) AppleWebKit/537.36 (KHTML, like Gecko) Chrome/139.0.0.0 Safari/537.36 Edg/139.0.0.0" version="28.1.2">
  <diagram id="-WynItcu4cD0x_Qd2Dbn" name="Pagina-1">
    <mxGraphModel dx="1034" dy="578" grid="1" gridSize="10" guides="1" tooltips="1" connect="1" arrows="1" fold="1" page="1" pageScale="1" pageWidth="827" pageHeight="1169" math="0" shadow="0">
      <root>
        <mxCell id="0" />
        <mxCell id="1" parent="0" />
        <mxCell id="RiNmOCMMx7-uTebH04OA-2" value="" style="endArrow=classic;html=1;rounded=0;exitX=0;exitY=0;exitDx=85;exitDy=40;exitPerimeter=0;entryX=0.5;entryY=0;entryDx=0;entryDy=0;" parent="1" source="RiNmOCMMx7-uTebH04OA-16" target="RiNmOCMMx7-uTebH04OA-40" edge="1">
          <mxGeometry width="50" height="50" relative="1" as="geometry">
            <mxPoint x="405" y="315" as="sourcePoint" />
            <mxPoint x="395" y="240" as="targetPoint" />
          </mxGeometry>
        </mxCell>
        <mxCell id="RiNmOCMMx7-uTebH04OA-3" value="" style="endArrow=classic;html=1;rounded=0;exitX=0.5;exitY=1;exitDx=0;exitDy=0;entryX=0.08;entryY=0.513;entryDx=0;entryDy=0;entryPerimeter=0;" parent="1" source="RiNmOCMMx7-uTebH04OA-40" target="RiNmOCMMx7-uTebH04OA-44" edge="1">
          <mxGeometry width="50" height="50" relative="1" as="geometry">
            <mxPoint x="400" y="295" as="sourcePoint" />
            <mxPoint x="390" y="350" as="targetPoint" />
          </mxGeometry>
        </mxCell>
        <mxCell id="RiNmOCMMx7-uTebH04OA-9" value="" style="endArrow=none;dashed=1;html=1;dashPattern=1 3;strokeWidth=2;rounded=0;fillColor=#b0e3e6;strokeColor=#0e8088;" parent="1" target="RiNmOCMMx7-uTebH04OA-36" edge="1">
          <mxGeometry width="50" height="50" relative="1" as="geometry">
            <mxPoint x="720" y="490" as="sourcePoint" />
            <mxPoint x="495" y="190" as="targetPoint" />
            <Array as="points">
              <mxPoint x="720" y="350" />
              <mxPoint x="720" y="200" />
              <mxPoint x="500" y="200" />
            </Array>
          </mxGeometry>
        </mxCell>
        <mxCell id="RiNmOCMMx7-uTebH04OA-10" value="" style="endArrow=none;dashed=1;html=1;dashPattern=1 3;strokeWidth=2;rounded=0;fillColor=#b0e3e6;strokeColor=#0e8088;" parent="1" edge="1">
          <mxGeometry width="50" height="50" relative="1" as="geometry">
            <mxPoint x="720" y="1050" as="sourcePoint" />
            <mxPoint x="720" y="470" as="targetPoint" />
            <Array as="points" />
          </mxGeometry>
        </mxCell>
        <mxCell id="RiNmOCMMx7-uTebH04OA-11" value="&amp;lt;&amp;lt;delay&amp;gt;&amp;gt;&lt;br&gt;1 minutes" style="shape=note;whiteSpace=wrap;html=1;backgroundOutline=1;darkOpacity=0.05;size=15;fillColor=#b0e3e6;strokeColor=#0e8088;" parent="1" vertex="1">
          <mxGeometry x="670" y="290" width="90" height="50" as="geometry" />
        </mxCell>
        <mxCell id="RiNmOCMMx7-uTebH04OA-12" value="&amp;lt;&amp;lt;frequency&amp;gt;&amp;gt;&lt;br&gt;nPatient * 1 / 80 minutes" style="shape=note;whiteSpace=wrap;html=1;backgroundOutline=1;darkOpacity=0.05;size=15;fillColor=#d5e8d4;strokeColor=#82b366;" parent="1" vertex="1">
          <mxGeometry x="465" y="60" width="135" height="50" as="geometry" />
        </mxCell>
        <mxCell id="RiNmOCMMx7-uTebH04OA-13" value="" style="endArrow=none;dashed=1;html=1;dashPattern=1 3;strokeWidth=2;rounded=0;fillColor=#d5e8d4;strokeColor=#82b366;exitX=0;exitY=0;exitDx=90;exitDy=0;exitPerimeter=0;entryX=0.5;entryY=1;entryDx=0;entryDy=0;entryPerimeter=0;" parent="1" source="RiNmOCMMx7-uTebH04OA-39" target="RiNmOCMMx7-uTebH04OA-12" edge="1">
          <mxGeometry width="50" height="50" relative="1" as="geometry">
            <mxPoint x="488" y="140" as="sourcePoint" />
            <mxPoint x="465" y="64" as="targetPoint" />
            <Array as="points">
              <mxPoint x="550" y="130" />
            </Array>
          </mxGeometry>
        </mxCell>
        <mxCell id="RiNmOCMMx7-uTebH04OA-14" value="&amp;lt;&amp;lt;complexity&amp;gt;&amp;gt;&lt;br&gt;high" style="shape=note;whiteSpace=wrap;html=1;backgroundOutline=1;darkOpacity=0.05;size=15;fillColor=#b1ddf0;strokeColor=#10739e;" parent="1" vertex="1">
          <mxGeometry x="640" y="95" width="120" height="50" as="geometry" />
        </mxCell>
        <mxCell id="RiNmOCMMx7-uTebH04OA-16" value="A2 - Process Physiological Data" style="html=1;shape=mxgraph.infographic.ribbonSimple;notch1=20;notch2=0;align=center;verticalAlign=middle;fontSize=14;fontStyle=0;fillColor=#fad9d5;flipH=0;spacingRight=0;spacingLeft=14;whiteSpace=wrap;strokeColor=#ae4132;" parent="1" vertex="1">
          <mxGeometry x="310" y="180" width="180" height="40" as="geometry" />
        </mxCell>
        <mxCell id="RiNmOCMMx7-uTebH04OA-18" style="edgeStyle=orthogonalEdgeStyle;rounded=0;orthogonalLoop=1;jettySize=auto;html=1;exitX=0.5;exitY=1;exitDx=0;exitDy=0;entryX=0.5;entryY=0;entryDx=0;entryDy=0;" parent="1" source="RiNmOCMMx7-uTebH04OA-66" target="RiNmOCMMx7-uTebH04OA-30" edge="1">
          <mxGeometry relative="1" as="geometry">
            <mxPoint x="394.5" y="840" as="sourcePoint" />
          </mxGeometry>
        </mxCell>
        <mxCell id="RiNmOCMMx7-uTebH04OA-20" value="" style="endArrow=classic;html=1;rounded=0;exitX=0.5;exitY=1;exitDx=0;exitDy=0;entryX=0.5;entryY=0;entryDx=0;entryDy=0;" parent="1" source="RiNmOCMMx7-uTebH04OA-30" target="RiNmOCMMx7-uTebH04OA-70" edge="1">
          <mxGeometry width="50" height="50" relative="1" as="geometry">
            <mxPoint x="489.5" y="870" as="sourcePoint" />
            <mxPoint x="394.5" y="950" as="targetPoint" />
          </mxGeometry>
        </mxCell>
        <mxCell id="RiNmOCMMx7-uTebH04OA-21" value="Anomaly Detected" style="edgeLabel;html=1;align=center;verticalAlign=middle;resizable=0;points=[];" parent="RiNmOCMMx7-uTebH04OA-20" vertex="1" connectable="0">
          <mxGeometry x="0.12" y="1" relative="1" as="geometry">
            <mxPoint x="52" y="-14" as="offset" />
          </mxGeometry>
        </mxCell>
        <mxCell id="RiNmOCMMx7-uTebH04OA-94" style="edgeStyle=orthogonalEdgeStyle;rounded=0;orthogonalLoop=1;jettySize=auto;html=1;entryX=0.5;entryY=0;entryDx=0;entryDy=0;" parent="1" source="RiNmOCMMx7-uTebH04OA-28" target="RiNmOCMMx7-uTebH04OA-93" edge="1">
          <mxGeometry relative="1" as="geometry" />
        </mxCell>
        <mxCell id="RiNmOCMMx7-uTebH04OA-28" value="" style="rhombus;whiteSpace=wrap;html=1;fillColor=#f8cecc;strokeColor=#b85450;" parent="1" vertex="1">
          <mxGeometry x="384.69" y="1120" width="40" height="40" as="geometry" />
        </mxCell>
        <mxCell id="RiNmOCMMx7-uTebH04OA-29" style="edgeStyle=orthogonalEdgeStyle;rounded=0;orthogonalLoop=1;jettySize=auto;html=1;exitX=1;exitY=0.5;exitDx=0;exitDy=0;entryX=1;entryY=0.5;entryDx=0;entryDy=0;" parent="1" source="RiNmOCMMx7-uTebH04OA-30" target="RiNmOCMMx7-uTebH04OA-28" edge="1">
          <mxGeometry relative="1" as="geometry">
            <Array as="points">
              <mxPoint x="767" y="875" />
              <mxPoint x="767" y="1140" />
            </Array>
          </mxGeometry>
        </mxCell>
        <mxCell id="RiNmOCMMx7-uTebH04OA-79" style="edgeStyle=orthogonalEdgeStyle;rounded=0;orthogonalLoop=1;jettySize=auto;html=1;exitX=0;exitY=0.5;exitDx=0;exitDy=0;entryX=0.5;entryY=0;entryDx=0;entryDy=0;" parent="1" source="RiNmOCMMx7-uTebH04OA-30" target="RiNmOCMMx7-uTebH04OA-69" edge="1">
          <mxGeometry relative="1" as="geometry">
            <mxPoint x="167" y="875" as="targetPoint" />
          </mxGeometry>
        </mxCell>
        <mxCell id="RiNmOCMMx7-uTebH04OA-80" style="edgeStyle=orthogonalEdgeStyle;rounded=0;orthogonalLoop=1;jettySize=auto;html=1;entryX=0.5;entryY=0;entryDx=0;entryDy=0;" parent="1" source="RiNmOCMMx7-uTebH04OA-30" target="RiNmOCMMx7-uTebH04OA-72" edge="1">
          <mxGeometry relative="1" as="geometry" />
        </mxCell>
        <mxCell id="RiNmOCMMx7-uTebH04OA-30" value="Result" style="shape=hexagon;perimeter=hexagonPerimeter2;whiteSpace=wrap;html=1;fixedSize=1;fillColor=#f8cecc;strokeColor=#b85450;" parent="1" vertex="1">
          <mxGeometry x="284.5" y="860" width="220" height="30" as="geometry" />
        </mxCell>
        <mxCell id="RiNmOCMMx7-uTebH04OA-31" value="Everything Ok" style="text;html=1;align=center;verticalAlign=middle;resizable=0;points=[];autosize=1;strokeColor=none;fillColor=none;" parent="1" vertex="1">
          <mxGeometry x="727" y="850" width="100" height="30" as="geometry" />
        </mxCell>
        <mxCell id="RiNmOCMMx7-uTebH04OA-32" value="" style="strokeWidth=2;html=1;shape=mxgraph.flowchart.start_2;whiteSpace=wrap;fillColor=#f8cecc;strokeColor=#b85450;" parent="1" vertex="1">
          <mxGeometry x="389.38" y="80" width="30.62" height="30" as="geometry" />
        </mxCell>
        <mxCell id="RiNmOCMMx7-uTebH04OA-33" value="" style="endArrow=classic;html=1;rounded=0;exitX=0.5;exitY=1;exitDx=0;exitDy=0;exitPerimeter=0;entryX=0.76;entryY=0.481;entryDx=0;entryDy=0;entryPerimeter=0;" parent="1" source="RiNmOCMMx7-uTebH04OA-32" target="RiNmOCMMx7-uTebH04OA-35" edge="1">
          <mxGeometry width="50" height="50" relative="1" as="geometry">
            <mxPoint x="395" y="130" as="sourcePoint" />
            <mxPoint x="396" y="180" as="targetPoint" />
          </mxGeometry>
        </mxCell>
        <mxCell id="RiNmOCMMx7-uTebH04OA-35" value="" style="html=1;points=[];perimeter=orthogonalPerimeter;fillColor=strokeColor;direction=south;" parent="1" vertex="1">
          <mxGeometry x="170" y="135" width="450" height="5" as="geometry" />
        </mxCell>
        <mxCell id="RiNmOCMMx7-uTebH04OA-36" value="A1 - Process Physiological Data" style="html=1;shape=mxgraph.infographic.ribbonSimple;notch1=20;notch2=0;align=center;verticalAlign=middle;fontSize=14;fontStyle=0;fillColor=#fad9d5;flipH=0;spacingRight=0;spacingLeft=14;whiteSpace=wrap;strokeColor=#ae4132;" parent="1" vertex="1">
          <mxGeometry x="100" y="180" width="180" height="40" as="geometry" />
        </mxCell>
        <mxCell id="RiNmOCMMx7-uTebH04OA-37" value="l1: Physiological Data" style="rounded=0;whiteSpace=wrap;html=1;fillColor=#fad7ac;strokeColor=#b46504;" parent="1" vertex="1">
          <mxGeometry x="125" y="240" width="130" height="60" as="geometry" />
        </mxCell>
        <mxCell id="RiNmOCMMx7-uTebH04OA-39" value="A3 - Process Daily Activity Data" style="html=1;shape=mxgraph.infographic.ribbonSimple;notch1=20;notch2=0;align=center;verticalAlign=middle;fontSize=14;fontStyle=0;fillColor=#fad9d5;flipH=0;spacingRight=0;spacingLeft=14;whiteSpace=wrap;strokeColor=#ae4132;" parent="1" vertex="1">
          <mxGeometry x="510" y="180" width="180" height="40" as="geometry" />
        </mxCell>
        <mxCell id="RiNmOCMMx7-uTebH04OA-40" value="l2: Physiological Data" style="rounded=0;whiteSpace=wrap;html=1;fillColor=#fad7ac;strokeColor=#b46504;" parent="1" vertex="1">
          <mxGeometry x="330" y="240" width="130" height="60" as="geometry" />
        </mxCell>
        <mxCell id="RiNmOCMMx7-uTebH04OA-41" value="l3: Daily Activity Data" style="rounded=0;whiteSpace=wrap;html=1;fillColor=#fad7ac;strokeColor=#b46504;" parent="1" vertex="1">
          <mxGeometry x="535" y="240" width="130" height="60" as="geometry" />
        </mxCell>
        <mxCell id="RiNmOCMMx7-uTebH04OA-42" value="" style="endArrow=classic;html=1;rounded=0;exitX=0.5;exitY=1;exitDx=0;exitDy=0;exitPerimeter=0;entryX=0.5;entryY=0;entryDx=0;entryDy=0;" parent="1" source="RiNmOCMMx7-uTebH04OA-36" target="RiNmOCMMx7-uTebH04OA-37" edge="1">
          <mxGeometry width="50" height="50" relative="1" as="geometry">
            <mxPoint x="200" y="230" as="sourcePoint" />
            <mxPoint x="200" y="250" as="targetPoint" />
          </mxGeometry>
        </mxCell>
        <mxCell id="RiNmOCMMx7-uTebH04OA-43" value="" style="endArrow=classic;html=1;rounded=0;exitX=0;exitY=0;exitDx=90;exitDy=40;exitPerimeter=0;entryX=0.5;entryY=0;entryDx=0;entryDy=0;" parent="1" source="RiNmOCMMx7-uTebH04OA-39" target="RiNmOCMMx7-uTebH04OA-41" edge="1">
          <mxGeometry width="50" height="50" relative="1" as="geometry">
            <mxPoint x="560" y="230" as="sourcePoint" />
            <mxPoint x="560" y="250" as="targetPoint" />
          </mxGeometry>
        </mxCell>
        <mxCell id="RiNmOCMMx7-uTebH04OA-44" value="" style="html=1;points=[];perimeter=orthogonalPerimeter;fillColor=strokeColor;direction=south;" parent="1" vertex="1">
          <mxGeometry x="175" y="340" width="450" height="5" as="geometry" />
        </mxCell>
        <mxCell id="RiNmOCMMx7-uTebH04OA-45" value="" style="endArrow=classic;html=1;rounded=0;exitX=0.5;exitY=1;exitDx=0;exitDy=0;" parent="1" source="RiNmOCMMx7-uTebH04OA-37" edge="1">
          <mxGeometry width="50" height="50" relative="1" as="geometry">
            <mxPoint x="191" y="320" as="sourcePoint" />
            <mxPoint x="190" y="340" as="targetPoint" />
          </mxGeometry>
        </mxCell>
        <mxCell id="RiNmOCMMx7-uTebH04OA-46" value="" style="endArrow=classic;html=1;rounded=0;exitX=0.5;exitY=1;exitDx=0;exitDy=0;entryX=0.4;entryY=0.055;entryDx=0;entryDy=0;entryPerimeter=0;" parent="1" source="RiNmOCMMx7-uTebH04OA-41" target="RiNmOCMMx7-uTebH04OA-44" edge="1">
          <mxGeometry width="50" height="50" relative="1" as="geometry">
            <mxPoint x="591" y="320" as="sourcePoint" />
            <mxPoint x="590" y="360" as="targetPoint" />
          </mxGeometry>
        </mxCell>
        <mxCell id="RiNmOCMMx7-uTebH04OA-47" value="" style="endArrow=none;dashed=1;html=1;dashPattern=1 3;strokeWidth=2;rounded=0;entryX=0.5;entryY=1;entryDx=0;entryDy=0;entryPerimeter=0;fillColor=#d5e8d4;strokeColor=#82b366;exitX=0;exitY=0;exitDx=90;exitDy=0;exitPerimeter=0;" parent="1" target="RiNmOCMMx7-uTebH04OA-50" edge="1">
          <mxGeometry width="50" height="50" relative="1" as="geometry">
            <mxPoint x="193" y="180" as="sourcePoint" />
            <mxPoint x="80" y="64" as="targetPoint" />
            <Array as="points">
              <mxPoint x="143" y="130" />
            </Array>
          </mxGeometry>
        </mxCell>
        <mxCell id="RiNmOCMMx7-uTebH04OA-48" value="" style="endArrow=none;dashed=1;html=1;dashPattern=1 3;strokeWidth=2;rounded=0;entryX=0.5;entryY=1;entryDx=0;entryDy=0;entryPerimeter=0;fillColor=#d5e8d4;strokeColor=#82b366;exitX=0;exitY=0;exitDx=90;exitDy=0;exitPerimeter=0;" parent="1" target="RiNmOCMMx7-uTebH04OA-49" edge="1">
          <mxGeometry width="50" height="50" relative="1" as="geometry">
            <mxPoint x="403" y="180" as="sourcePoint" />
            <mxPoint x="290" y="64" as="targetPoint" />
            <Array as="points">
              <mxPoint x="350" y="150" />
            </Array>
          </mxGeometry>
        </mxCell>
        <mxCell id="RiNmOCMMx7-uTebH04OA-49" value="&amp;lt;&amp;lt;frequency&amp;gt;&amp;gt;&lt;br&gt;nPatient * 1 / 3 minutes" style="shape=note;whiteSpace=wrap;html=1;backgroundOutline=1;darkOpacity=0.05;size=15;fillColor=#d5e8d4;strokeColor=#82b366;" parent="1" vertex="1">
          <mxGeometry x="230" y="60" width="135" height="50" as="geometry" />
        </mxCell>
        <mxCell id="RiNmOCMMx7-uTebH04OA-50" value="&amp;lt;&amp;lt;frequency&amp;gt;&amp;gt;&lt;br&gt;nPatient * 15 / day" style="shape=note;whiteSpace=wrap;html=1;backgroundOutline=1;darkOpacity=0.05;size=15;fillColor=#d5e8d4;strokeColor=#82b366;" parent="1" vertex="1">
          <mxGeometry x="70" y="60" width="130" height="50" as="geometry" />
        </mxCell>
        <mxCell id="RiNmOCMMx7-uTebH04OA-53" value="l4: Patient Data" style="rounded=0;whiteSpace=wrap;html=1;fillColor=#fad7ac;strokeColor=#b46504;" parent="1" vertex="1">
          <mxGeometry x="330" y="380" width="130" height="60" as="geometry" />
        </mxCell>
        <mxCell id="RiNmOCMMx7-uTebH04OA-54" value="&amp;lt;&amp;lt;buffer&amp;gt;&amp;gt;&lt;br&gt;l4.1: Patient Data" style="rounded=0;whiteSpace=wrap;html=1;fillColor=#fad7ac;strokeColor=#b46504;" parent="1" vertex="1">
          <mxGeometry x="330" y="470" width="130" height="60" as="geometry" />
        </mxCell>
        <mxCell id="RiNmOCMMx7-uTebH04OA-55" value="" style="endArrow=classic;html=1;rounded=0;exitX=1.2;exitY=0.51;exitDx=0;exitDy=0;entryX=0.5;entryY=0;entryDx=0;entryDy=0;exitPerimeter=0;" parent="1" source="RiNmOCMMx7-uTebH04OA-44" target="RiNmOCMMx7-uTebH04OA-53" edge="1">
          <mxGeometry width="50" height="50" relative="1" as="geometry">
            <mxPoint x="381" y="360" as="sourcePoint" />
            <mxPoint x="380" y="400" as="targetPoint" />
          </mxGeometry>
        </mxCell>
        <mxCell id="RiNmOCMMx7-uTebH04OA-56" value="" style="endArrow=classic;html=1;rounded=0;exitX=0.5;exitY=1;exitDx=0;exitDy=0;entryX=0.5;entryY=0;entryDx=0;entryDy=0;" parent="1" source="RiNmOCMMx7-uTebH04OA-53" target="RiNmOCMMx7-uTebH04OA-54" edge="1">
          <mxGeometry width="50" height="50" relative="1" as="geometry">
            <mxPoint x="371" y="450" as="sourcePoint" />
            <mxPoint x="370" y="490" as="targetPoint" />
          </mxGeometry>
        </mxCell>
        <mxCell id="RiNmOCMMx7-uTebH04OA-58" value="A5 - Get Medical Record" style="rounded=1;whiteSpace=wrap;html=1;fillColor=#f8cecc;strokeColor=#b85450;" parent="1" vertex="1">
          <mxGeometry x="330" y="555" width="130" height="65" as="geometry" />
        </mxCell>
        <mxCell id="RiNmOCMMx7-uTebH04OA-59" value="l5: Medical Record" style="rounded=0;whiteSpace=wrap;html=1;fillColor=#fad7ac;strokeColor=#b46504;" parent="1" vertex="1">
          <mxGeometry x="500" y="557.5" width="130" height="60" as="geometry" />
        </mxCell>
        <mxCell id="RiNmOCMMx7-uTebH04OA-60" value="&amp;lt;&amp;lt;datastore&amp;gt;&amp;gt;&lt;br&gt;l5.1: Medical Record" style="rounded=0;whiteSpace=wrap;html=1;fillColor=#fad7ac;strokeColor=#b46504;" parent="1" vertex="1">
          <mxGeometry x="500" y="470" width="130" height="60" as="geometry" />
        </mxCell>
        <mxCell id="RiNmOCMMx7-uTebH04OA-61" value="" style="endArrow=classic;html=1;rounded=0;exitX=0.5;exitY=1;exitDx=0;exitDy=0;entryX=0.5;entryY=0;entryDx=0;entryDy=0;" parent="1" source="RiNmOCMMx7-uTebH04OA-60" target="RiNmOCMMx7-uTebH04OA-59" edge="1">
          <mxGeometry width="50" height="50" relative="1" as="geometry">
            <mxPoint x="581" y="480" as="sourcePoint" />
            <mxPoint x="583" y="590" as="targetPoint" />
          </mxGeometry>
        </mxCell>
        <mxCell id="RiNmOCMMx7-uTebH04OA-63" value="" style="endArrow=classic;html=1;rounded=0;exitX=0;exitY=0.5;exitDx=0;exitDy=0;entryX=1;entryY=0.5;entryDx=0;entryDy=0;" parent="1" source="RiNmOCMMx7-uTebH04OA-59" target="RiNmOCMMx7-uTebH04OA-58" edge="1">
          <mxGeometry width="50" height="50" relative="1" as="geometry">
            <mxPoint x="520" y="530" as="sourcePoint" />
            <mxPoint x="520" y="595" as="targetPoint" />
          </mxGeometry>
        </mxCell>
        <mxCell id="RiNmOCMMx7-uTebH04OA-64" value="" style="endArrow=classic;html=1;rounded=0;exitX=0.5;exitY=1;exitDx=0;exitDy=0;entryX=0.5;entryY=0;entryDx=0;entryDy=0;" parent="1" source="RiNmOCMMx7-uTebH04OA-54" target="RiNmOCMMx7-uTebH04OA-58" edge="1">
          <mxGeometry width="50" height="50" relative="1" as="geometry">
            <mxPoint x="460" y="530" as="sourcePoint" />
            <mxPoint x="460" y="595" as="targetPoint" />
          </mxGeometry>
        </mxCell>
        <mxCell id="RiNmOCMMx7-uTebH04OA-66" value="A7 - Analyze Patient Data" style="rounded=1;whiteSpace=wrap;html=1;fillColor=#f8cecc;strokeColor=#b85450;" parent="1" vertex="1">
          <mxGeometry x="329.5" y="770" width="130" height="65" as="geometry" />
        </mxCell>
        <mxCell id="RiNmOCMMx7-uTebH04OA-69" value="l7.1: Red Code Alert" style="rounded=0;whiteSpace=wrap;html=1;fillColor=#fad7ac;strokeColor=#b46504;" parent="1" vertex="1">
          <mxGeometry x="120" y="940" width="130" height="60" as="geometry" />
        </mxCell>
        <mxCell id="RiNmOCMMx7-uTebH04OA-70" value="l7.2: Anomaly" style="rounded=0;whiteSpace=wrap;html=1;fillColor=#fad7ac;strokeColor=#b46504;" parent="1" vertex="1">
          <mxGeometry x="329.5" y="940" width="130" height="60" as="geometry" />
        </mxCell>
        <mxCell id="RiNmOCMMx7-uTebH04OA-72" value="l7.2: Threshold" style="rounded=0;whiteSpace=wrap;html=1;fillColor=#fad7ac;strokeColor=#b46504;" parent="1" vertex="1">
          <mxGeometry x="542" y="940" width="130" height="60" as="geometry" />
        </mxCell>
        <mxCell id="RiNmOCMMx7-uTebH04OA-81" value="Threshold Problem" style="edgeLabel;html=1;align=center;verticalAlign=middle;resizable=0;points=[];" parent="1" vertex="1" connectable="0">
          <mxGeometry x="657" y="890" as="geometry">
            <mxPoint x="-2" y="6" as="offset" />
          </mxGeometry>
        </mxCell>
        <mxCell id="RiNmOCMMx7-uTebH04OA-82" value="Red Code Detected" style="edgeLabel;html=1;align=center;verticalAlign=middle;resizable=0;points=[];" parent="1" vertex="1" connectable="0">
          <mxGeometry x="227" y="890" as="geometry" />
        </mxCell>
        <mxCell id="RiNmOCMMx7-uTebH04OA-88" style="edgeStyle=orthogonalEdgeStyle;rounded=0;orthogonalLoop=1;jettySize=auto;html=1;entryX=0.5;entryY=0;entryDx=0;entryDy=0;" parent="1" source="RiNmOCMMx7-uTebH04OA-83" target="RiNmOCMMx7-uTebH04OA-28" edge="1">
          <mxGeometry relative="1" as="geometry">
            <Array as="points">
              <mxPoint x="187" y="1090" />
              <mxPoint x="405" y="1090" />
            </Array>
          </mxGeometry>
        </mxCell>
        <mxCell id="RiNmOCMMx7-uTebH04OA-83" value="A8 - Start&amp;nbsp;Red Code Alert" style="html=1;shape=mxgraph.infographic.ribbonSimple;notch1=0;notch2=20;align=center;verticalAlign=middle;fontSize=14;fontStyle=0;fillColor=#f8cecc;whiteSpace=wrap;strokeColor=#b85450;" parent="1" vertex="1">
          <mxGeometry x="100" y="1030" width="180" height="40" as="geometry" />
        </mxCell>
        <mxCell id="RiNmOCMMx7-uTebH04OA-86" style="edgeStyle=orthogonalEdgeStyle;rounded=0;orthogonalLoop=1;jettySize=auto;html=1;entryX=0.5;entryY=0;entryDx=0;entryDy=0;" parent="1" source="RiNmOCMMx7-uTebH04OA-84" target="RiNmOCMMx7-uTebH04OA-28" edge="1">
          <mxGeometry relative="1" as="geometry" />
        </mxCell>
        <mxCell id="RiNmOCMMx7-uTebH04OA-87" style="edgeStyle=orthogonalEdgeStyle;rounded=0;orthogonalLoop=1;jettySize=auto;html=1;entryX=0.5;entryY=0;entryDx=0;entryDy=0;" parent="1" source="RiNmOCMMx7-uTebH04OA-85" target="RiNmOCMMx7-uTebH04OA-28" edge="1">
          <mxGeometry relative="1" as="geometry">
            <Array as="points">
              <mxPoint x="617" y="1090" />
              <mxPoint x="405" y="1090" />
            </Array>
          </mxGeometry>
        </mxCell>
        <mxCell id="RiNmOCMMx7-uTebH04OA-89" style="edgeStyle=orthogonalEdgeStyle;rounded=0;orthogonalLoop=1;jettySize=auto;html=1;entryX=0.472;entryY=0;entryDx=0;entryDy=0;entryPerimeter=0;" parent="1" source="RiNmOCMMx7-uTebH04OA-69" target="RiNmOCMMx7-uTebH04OA-83" edge="1">
          <mxGeometry relative="1" as="geometry" />
        </mxCell>
        <mxCell id="RiNmOCMMx7-uTebH04OA-91" style="edgeStyle=orthogonalEdgeStyle;rounded=0;orthogonalLoop=1;jettySize=auto;html=1;entryX=0;entryY=0;entryDx=70;entryDy=0;entryPerimeter=0;" parent="1" source="RiNmOCMMx7-uTebH04OA-70" target="RiNmOCMMx7-uTebH04OA-84" edge="1">
          <mxGeometry relative="1" as="geometry" />
        </mxCell>
        <mxCell id="RiNmOCMMx7-uTebH04OA-92" style="edgeStyle=orthogonalEdgeStyle;rounded=0;orthogonalLoop=1;jettySize=auto;html=1;entryX=0;entryY=0;entryDx=70;entryDy=0;entryPerimeter=0;" parent="1" source="RiNmOCMMx7-uTebH04OA-72" target="RiNmOCMMx7-uTebH04OA-85" edge="1">
          <mxGeometry relative="1" as="geometry" />
        </mxCell>
        <mxCell id="RiNmOCMMx7-uTebH04OA-93" value="" style="shape=sumEllipse;perimeter=ellipsePerimeter;whiteSpace=wrap;html=1;backgroundOutline=1;fillColor=#f8cecc;strokeColor=#b85450;" parent="1" vertex="1">
          <mxGeometry x="388.69" y="1180" width="32" height="30" as="geometry" />
        </mxCell>
        <mxCell id="E3dJ-l5eyeiqGMlD7IP--9" style="edgeStyle=orthogonalEdgeStyle;rounded=0;orthogonalLoop=1;jettySize=auto;html=1;entryX=0.5;entryY=0;entryDx=0;entryDy=0;" parent="1" source="E3dJ-l5eyeiqGMlD7IP--3" target="RiNmOCMMx7-uTebH04OA-66" edge="1">
          <mxGeometry relative="1" as="geometry" />
        </mxCell>
        <mxCell id="E3dJ-l5eyeiqGMlD7IP--3" value="A6 - Get Therapeutic Plan" style="rounded=1;whiteSpace=wrap;html=1;fillColor=#f8cecc;strokeColor=#b85450;" parent="1" vertex="1">
          <mxGeometry x="330" y="660" width="130" height="65" as="geometry" />
        </mxCell>
        <mxCell id="E3dJ-l5eyeiqGMlD7IP--4" value="l6: Therapeutic Plan" style="rounded=0;whiteSpace=wrap;html=1;fillColor=#fad7ac;strokeColor=#b46504;" parent="1" vertex="1">
          <mxGeometry x="154.5" y="662.5" width="130" height="60" as="geometry" />
        </mxCell>
        <mxCell id="E3dJ-l5eyeiqGMlD7IP--5" value="&amp;lt;&amp;lt;datastore&amp;gt;&amp;gt;&lt;br&gt;l6.1: Therapeutic Plan" style="rounded=0;whiteSpace=wrap;html=1;fillColor=#fad7ac;strokeColor=#b46504;" parent="1" vertex="1">
          <mxGeometry x="154.5" y="557.5" width="130" height="60" as="geometry" />
        </mxCell>
        <mxCell id="E3dJ-l5eyeiqGMlD7IP--6" value="" style="endArrow=classic;html=1;rounded=0;exitX=0.5;exitY=1;exitDx=0;exitDy=0;entryX=0.5;entryY=0;entryDx=0;entryDy=0;" parent="1" source="E3dJ-l5eyeiqGMlD7IP--5" target="E3dJ-l5eyeiqGMlD7IP--4" edge="1">
          <mxGeometry width="50" height="50" relative="1" as="geometry">
            <mxPoint x="211" y="540" as="sourcePoint" />
            <mxPoint x="213" y="650" as="targetPoint" />
          </mxGeometry>
        </mxCell>
        <mxCell id="E3dJ-l5eyeiqGMlD7IP--7" value="" style="endArrow=classic;html=1;rounded=0;exitX=1;exitY=0.5;exitDx=0;exitDy=0;entryX=0;entryY=0.5;entryDx=0;entryDy=0;" parent="1" source="E3dJ-l5eyeiqGMlD7IP--4" target="E3dJ-l5eyeiqGMlD7IP--3" edge="1">
          <mxGeometry width="50" height="50" relative="1" as="geometry">
            <mxPoint x="150" y="590" as="sourcePoint" />
            <mxPoint x="150" y="655" as="targetPoint" />
          </mxGeometry>
        </mxCell>
        <mxCell id="E3dJ-l5eyeiqGMlD7IP--8" value="" style="endArrow=classic;html=1;rounded=0;exitX=0.5;exitY=1;exitDx=0;exitDy=0;entryX=0.5;entryY=0;entryDx=0;entryDy=0;" parent="1" source="RiNmOCMMx7-uTebH04OA-58" target="E3dJ-l5eyeiqGMlD7IP--3" edge="1">
          <mxGeometry width="50" height="50" relative="1" as="geometry">
            <mxPoint x="165" y="585" as="sourcePoint" />
            <mxPoint x="90" y="655" as="targetPoint" />
          </mxGeometry>
        </mxCell>
        <mxCell id="E3dJ-l5eyeiqGMlD7IP--10" value="" style="endArrow=none;dashed=1;html=1;dashPattern=1 3;strokeWidth=2;rounded=0;fillColor=#b0e3e6;strokeColor=#0e8088;exitX=1;exitY=0.5;exitDx=0;exitDy=0;exitPerimeter=0;" parent="1" source="RiNmOCMMx7-uTebH04OA-83" target="RiNmOCMMx7-uTebH04OA-84" edge="1">
          <mxGeometry width="50" height="50" relative="1" as="geometry">
            <mxPoint x="267" y="1050" as="sourcePoint" />
            <mxPoint x="720" y="470" as="targetPoint" />
            <Array as="points">
              <mxPoint x="720" y="1050" />
            </Array>
          </mxGeometry>
        </mxCell>
        <mxCell id="RiNmOCMMx7-uTebH04OA-84" value="A9 - Start Anomaly Alert" style="html=1;shape=mxgraph.infographic.ribbonSimple;notch1=0;notch2=20;align=center;verticalAlign=middle;fontSize=14;fontStyle=0;fillColor=#f8cecc;whiteSpace=wrap;strokeColor=#b85450;" parent="1" vertex="1">
          <mxGeometry x="324.69" y="1030" width="160" height="40" as="geometry" />
        </mxCell>
        <mxCell id="RiNmOCMMx7-uTebH04OA-85" value="A10 - Start&amp;nbsp;Threshold Alert" style="html=1;shape=mxgraph.infographic.ribbonSimple;notch1=0;notch2=20;align=center;verticalAlign=middle;fontSize=14;fontStyle=0;fillColor=#f8cecc;whiteSpace=wrap;strokeColor=#b85450;" parent="1" vertex="1">
          <mxGeometry x="537" y="1030" width="160" height="40" as="geometry" />
        </mxCell>
      </root>
    </mxGraphModel>
  </diagram>
</mxfile>
